<svg xmlns:xlink="http://www.w3.org/1999/xlink" class="mg-t-4" width="30" height="30" viewBox="0 0 30 30" fill="none" xmlns="http://www.w3.org/2000/svg"><path d="M15 30C23.2843 30 30 23.2843 30 15C30 6.71573 23.2843 0 15 0C6.71573 0 0 6.71573 0 15C0 23.2843 6.71573 30 15 30Z" fill="#DADADA"></path><path d="M23.3993 17.1175C24.2413 17.3613 25.0174 17.8642 25.6543 18.5627C25.852 18.7811 25.9765 19.1037 25.9966 19.4542C26.0186 19.8047 25.9326 20.1501 25.7623 20.4117C23.0296 24.5999 19.1053 27 14.9998 27C10.8943 27 6.97179 24.5973 4.23722 20.4117C4.06699 20.1501 3.9828 19.8072 4.00293 19.4567C4.02306 19.1062 4.14753 18.7837 4.34521 18.5627C4.98035 17.8642 5.75642 17.3664 6.5929 17.1201L10.6106 16.0025L19.3853 16L23.3993 17.1175Z" fill="#FFFFFF"></path><path d="M25.7221 19.4699L25.7222 19.4714C25.7408 19.7691 25.6666 20.0546 25.532 20.2615C22.8374 24.3912 18.9914 26.725 14.9998 26.725C11.0083 26.725 7.16414 24.3888 4.46761 20.2615C4.33334 20.0551 4.26028 19.7719 4.27748 19.4725C4.29465 19.1736 4.40043 18.9139 4.54946 18.7468C5.15288 18.0836 5.88549 17.6155 6.66863 17.3844L10.6481 16.2775L19.3478 16.275L23.3228 17.3817C23.3233 17.3818 23.3237 17.3819 23.3242 17.3821C24.1115 17.6104 24.8445 18.0829 25.4507 18.7475C25.5988 18.9112 25.7049 19.1704 25.7221 19.4699Z" stroke="#C8C8C8" stroke-opacity="0.1" stroke-width="0.55px" fill="none"></path><g filter="url(#filter0_d)" fill="none"><circle cx="15" cy="11.5" r="5.5" fill="#FFFFFF"></circle><circle cx="15" cy="11.5" r="5.775" stroke="#E0E0E0" stroke-width="0.55px" fill="none"></circle></g><defs><filter id="filter0_d" x="7.84922" y="5.44995" width="14.3" height="14.3" filterUnits="userSpaceOnUse" color-interpolation-filters="sRGB"><feFlood flood-opacity="0" result="BackgroundImageFix"></feFlood><feColorMatrix in="SourceAlpha" type="matrix" values="0 0 0 0 0 0 0 0 0 0 0 0 0 0 0 0 0 0 127 0"></feColorMatrix><feOffset dy="1.1"></feOffset><feGaussianBlur stdDeviation="0.55"></feGaussianBlur><feColorMatrix type="matrix" values="0 0 0 0 0 0 0 0 0 0 0 0 0 0 0 0 0 0 0.05 0"></feColorMatrix><feBlend mode="normal" in2="BackgroundImageFix" result="effect1_dropShadow"></feBlend><feBlend mode="normal" in="SourceGraphic" in2="effect1_dropShadow" result="shape"></feBlend></filter></defs></svg>